<svg xmlns="http://www.w3.org/2000/svg" width="152" height="48" fill="none" viewBox="0 0 152 48"><g clip-path="url(#a)"><path fill="#fff" d="m62.66 32 4.416-17.724h5.892L77.36 32h-3.816l-3.528-15.456h.024L66.476 32zm3.168-4.104v-2.904h8.4v2.904zm22.451 2.592q1.176.12 2.052.456.888.324 1.38.972.492.636.492 1.704 0 1.236-.816 2.1-.804.876-2.364 1.332t-3.78.456q-3.276 0-5.076-.948-1.788-.936-1.788-2.508 0-.444.096-.804.108-.348.264-.6l3.384.492q-.06.084-.132.252-.06.18-.06.444 0 .636.948.948.96.312 2.472.312 1.068 0 1.824-.156.768-.144 1.164-.432.408-.288.408-.66 0-.54-.528-.708a6 6 0 0 0-1.2-.24l-4.824-.492q-1.332-.132-2.208-.768t-.876-1.716q0-.672.372-1.224.372-.564.852-.924.48-.372.804-.468l1.896.96q-.228.036-.54.288-.3.252-.3.588t.336.576q.348.24 1.26.324zm1.26-11.232h3.276l-1.332 4.896a8.3 8.3 0 0 1-1.104 2.484 5.1 5.1 0 0 1-1.956 1.704q-1.212.624-3.06.624-1.944 0-3.372-.6-1.416-.6-2.184-1.692-.768-1.104-.768-2.604t.78-2.64q.792-1.14 2.148-1.776 1.368-.636 3.096-.636 1.308 0 2.388.432 1.092.42 1.752 1.116.672.696.696 1.536l-.684.18zm-4.2 6.984q.792 0 1.392-.252.6-.264.936-.756.336-.504.336-1.212 0-.696-.336-1.188a2.15 2.15 0 0 0-.936-.756q-.6-.264-1.392-.264-.756 0-1.368.276-.6.264-.948.768-.348.492-.348 1.2 0 .696.336 1.188.336.48.936.744.6.252 1.392.252m10.268.504v-2.46h8.448l-.36.624v-.36q0-.684-.324-1.308-.324-.636-1.008-1.032-.672-.408-1.728-.408t-1.824.456a2.93 2.93 0 0 0-1.164 1.284q-.396.84-.396 2.028 0 1.224.384 2.1A2.96 2.96 0 0 0 98.799 29q.78.468 1.932.468.744 0 1.284-.132.54-.144.876-.36.348-.216.528-.48t.216-.516h3.672q-.072.804-.552 1.584-.48.768-1.332 1.392-.852.612-2.076.972-1.212.36-2.772.36-2.112 0-3.684-.84-1.572-.852-2.436-2.34-.864-1.5-.864-3.456 0-1.98.876-3.468a6.1 6.1 0 0 1 2.46-2.328q1.584-.84 3.66-.84 2.124 0 3.672.852a5.86 5.86 0 0 1 2.388 2.364q.84 1.512.84 3.528 0 .3-.012.576t-.036.408zM118.787 32v-6.912a4.8 4.8 0 0 0-.204-1.44 2.03 2.03 0 0 0-.732-1.056q-.528-.396-1.524-.396-.864 0-1.5.396a2.6 2.6 0 0 0-.96 1.104q-.336.708-.336 1.632l-1.032-.744q0-1.656.72-2.904a5.24 5.24 0 0 1 1.944-1.956q1.236-.708 2.736-.708 1.572 0 2.58.636 1.02.624 1.512 1.752.504 1.116.504 2.616V32zm-8.976 0V19.256h3.72V32zm21.889.288q-2.1 0-3.684-.84a6.14 6.14 0 0 1-2.46-2.364q-.864-1.512-.864-3.492 0-2.004.864-3.468.876-1.476 2.46-2.292t3.684-.816q1.572 0 2.784.468 1.212.456 2.028 1.212a5.3 5.3 0 0 1 1.236 1.656q.42.9.42 1.788v.096h-3.684a.7.7 0 0 0-.012-.132.5.5 0 0 0-.024-.144 2.3 2.3 0 0 0-.42-.948q-.324-.444-.912-.72-.576-.288-1.44-.288-.924 0-1.656.408-.72.408-1.14 1.212-.42.792-.42 1.968 0 1.152.42 1.992.42.828 1.14 1.272a3.13 3.13 0 0 0 1.656.444q.948 0 1.548-.288.6-.3.9-.792.3-.504.36-1.104h3.684q0 .888-.42 1.812a5.1 5.1 0 0 1-1.224 1.668q-.804.756-2.016 1.224t-2.808.468m9.238 5.22q-.6 0-1.08-.048-.468-.036-.588-.084v-2.82q.156.072.54.108.396.048.84.048.588 0 1.056-.24.48-.228.816-.66.348-.42.54-.996l.216-.648-4.392-12.912h3.876l2.772 10.452h-.432l2.664-10.452h3.828l-4.38 13.38q-.492 1.512-1.212 2.604a4.77 4.77 0 0 1-1.92 1.68q-1.2.588-3.144.588"/><path stroke="#ef6d58" stroke-width="5" d="M43.886 17.538 36.29 40.916H11.709L4.113 17.538 24 3.09z"/><path fill="#ef6d58" d="m23.5 14 9.035 6.564-3.451 10.622H17.916l-3.451-10.622z"/></g><defs><clipPath id="a"><path fill="#fff" d="M0 0h152v48H0z"/></clipPath></defs></svg>